<?xml version="1.0" encoding="UTF-8" standalone="no"?><!DOCTYPE svg PUBLIC "-//W3C//DTD SVG 1.1//EN" "http://www.w3.org/Graphics/SVG/1.1/DTD/svg11.dtd"><svg width="100%" height="100%" viewBox="0 0 3509 2363" version="1.1" xmlns="http://www.w3.org/2000/svg" xmlns:xlink="http://www.w3.org/1999/xlink" xml:space="preserve" xmlns:serif="http://www.serif.com/" style="fill-rule:evenodd;clip-rule:evenodd;stroke-linejoin:round;stroke-miterlimit:2;"><g><path d="M1725.8,1447.37l-5.004,6.408c-4.671,-4.429 -10.85,-7.108 -18.313,-7.108c-12.704,-0 -21.8,9.208 -21.8,22.616c0,13.405 9.096,22.734 21.8,22.734c8.046,-0 14.692,-2.796 19.005,-7.929l5.249,5.595c-5.483,6.651 -13.987,10.613 -24.599,10.613c-17.838,0 -30.426,-12.713 -30.426,-31.013c0,-18.304 12.705,-31.008 30.426,-31.008c9.908,-0.117 18.075,3.258 23.662,9.092Z" style="fill:#6c6d6d;fill-rule:nonzero;"/><path d="M1752.4,1452.15c4.079,-8.975 11.654,-13.871 22.029,-13.988l-0,9.209c-12.938,-0.238 -20.987,7.812 -22.029,19.937l-0,32.638l-9.1,-0l-0,-61.438l9.1,0l-0,13.642Z" style="fill:#6c6d6d;fill-rule:nonzero;"/><path d="M1831.44,1465.32c-0.588,-11.771 -8.513,-19.234 -20.521,-19.234c-11.659,0 -20.046,7.579 -21.45,19.234l41.971,-0Zm8.158,7.462l-50.129,0c1.633,12.008 10.375,19.592 22.262,19.592c7.584,-0 14.229,-2.684 19.009,-7.696l5.012,5.362c-5.833,6.53 -14.458,10.263 -24.717,10.263c-18.066,0 -30.541,-12.713 -30.541,-31.013c-0,-18.304 12.591,-31.008 30.425,-31.008c19.821,-0.117 29.616,13.638 28.679,34.5Z" style="fill:#6c6d6d;fill-rule:nonzero;"/><path d="M1893.23,1478.73l0,-7.346l-19.117,0c-10.262,0 -15.62,3.146 -15.62,9.909c-0,6.762 5.479,11.192 14.104,11.192c10.375,-0 18.3,-5.251 20.633,-13.755Zm0.117,11.771c-4.896,6.646 -12.709,9.908 -22.5,9.908c-12.708,0 -20.871,-8.162 -20.871,-18.766c-0,-10.725 8.517,-17.488 22.967,-17.604l20.175,-0l-0,-3.609c-0,-8.987 -5.605,-14.35 -16.442,-14.35c-6.763,0 -13.054,2.567 -19.471,7.004l-3.837,-6.654c7.916,-5.241 14.57,-8.271 25.058,-8.271c15.158,0 23.546,8.042 23.663,21.217l0.116,40.567l-8.858,-0l-0,-9.442Z" style="fill:#6c6d6d;fill-rule:nonzero;"/><path d="M1954.21,1495.75c-4.312,2.913 -8.983,4.55 -13.875,4.662c-8.983,0 -15.625,-5.362 -15.625,-17.483l0,-35.091l-8.858,-0l0,-7.346l8.858,-0l0,-16.205l8.975,0l0,16.205l19.471,-0.117l0,7.463l-19.471,-0l0,33.458c0,7.458 2.913,10.258 8.163,10.258c3.15,0 6.408,-1.05 9.792,-3.15l2.57,7.346Z" style="fill:#6c6d6d;fill-rule:nonzero;"/><path d="M1967.97,1499.95l-0,-61.438l8.975,0l-0,61.438l-8.975,-0Zm10.375,-79.042c-0,3.613 -2.563,6.292 -5.946,6.292c-3.384,-0 -5.95,-2.679 -5.95,-6.292c-0,-3.616 2.566,-6.287 5.95,-6.287c3.383,-0 5.946,2.671 5.946,6.287Z" style="fill:#6c6d6d;fill-rule:nonzero;"/><path d="M2012.85,1499.95l-24.362,-61.438l9.675,0l19.583,51.996l19.471,-51.996l9.212,0l-24.133,61.438l-9.446,-0Z" style="fill:#6c6d6d;fill-rule:nonzero;"/><path d="M2099.94,1465.32c-0.583,-11.771 -8.508,-19.234 -20.512,-19.234c-11.658,0 -20.054,7.579 -21.454,19.234l41.966,-0Zm8.163,7.462l-50.129,0c1.633,12.008 10.371,19.592 22.271,19.592c7.571,-0 14.225,-2.684 19,-7.696l5.012,5.362c-5.833,6.53 -14.454,10.263 -24.712,10.263c-18.075,0 -30.542,-12.713 -30.542,-31.013c0,-18.304 12.583,-31.008 30.425,-31.008c19.817,-0.117 29.613,13.638 28.675,34.5Z" style="fill:#6c6d6d;fill-rule:nonzero;"/><rect x="2156.26" y="1413.44" width="9.092" height="86.504" style="fill:#6c6d6d;fill-rule:nonzero;"/><path d="M2232.85,1465.32c-0.587,-11.771 -8.508,-19.234 -20.512,-19.234c-11.659,0 -20.059,7.579 -21.455,19.234l41.967,-0Zm8.163,7.462l-50.13,0c1.63,12.008 10.375,19.592 22.263,19.592c7.579,-0 14.221,-2.684 19.004,-7.696l5.013,5.362c-5.83,6.53 -14.455,10.263 -24.717,10.263c-18.071,0 -30.542,-12.713 -30.542,-31.013c0,-18.304 12.592,-31.008 30.434,-31.008c19.812,-0.117 29.604,13.638 28.675,34.5Z" style="fill:#6c6d6d;fill-rule:nonzero;"/><path d="M2288.35,1495.75c-4.312,2.913 -8.975,4.55 -13.875,4.662c-8.971,0 -15.621,-5.362 -15.621,-17.483l0,-35.091l-8.858,-0l0,-7.346l8.858,-0l0,-16.205l8.98,0l-0,16.205l19.466,-0.117l0,7.463l-19.466,-0l-0,33.458c-0,7.458 2.912,10.258 8.158,10.258c3.146,0 6.412,-1.05 9.791,-3.15l2.567,7.346Z" style="fill:#6c6d6d;fill-rule:nonzero;"/><path d="M2333.83,1495.75c-4.312,2.913 -8.975,4.55 -13.875,4.662c-8.971,0 -15.621,-5.362 -15.621,-17.483l0,-35.091l-8.858,-0l-0,-7.346l8.858,-0l0,-16.205l8.975,0l0,16.205l19.475,-0.117l0,7.463l-19.475,-0l0,33.458c0,7.458 2.921,10.258 8.167,10.258c3.141,0 6.408,-1.05 9.787,-3.15l2.567,7.346Z" style="fill:#6c6d6d;fill-rule:nonzero;"/><path d="M2391.42,1465.32c-0.583,-11.771 -8.513,-19.234 -20.513,-19.234c-11.662,0 -20.058,7.579 -21.458,19.234l41.971,-0Zm8.158,7.462l-50.129,0c1.633,12.008 10.375,19.592 22.271,19.592c7.575,-0 14.225,-2.684 19,-7.696l5.016,5.362c-5.833,6.53 -14.454,10.263 -24.716,10.263c-18.071,0 -30.542,-12.713 -30.542,-31.013c0,-18.304 12.583,-31.008 30.429,-31.008c19.813,-0.117 29.609,13.638 28.671,34.5Z" style="fill:#6c6d6d;fill-rule:nonzero;"/><path d="M2424.3,1452.15c4.083,-8.975 11.654,-13.871 22.033,-13.988l0,9.209c-12.941,-0.238 -20.983,7.812 -22.033,19.937l0,32.638l-9.096,-0l0,-61.438l9.096,0l0,13.642Z" style="fill:#6c6d6d;fill-rule:nonzero;"/><path d="M2494.49,1443.75l-3.501,7.229c-4.779,-3.029 -10.954,-5.012 -16.666,-5.012c-6.875,-0 -12.125,2.454 -12.125,8.158c-0,13.646 34.275,6.65 34.275,28.683c-0,12.121 -10.729,17.488 -22.5,17.488c-8.746,0 -17.717,-3.033 -23.55,-8.625l3.496,-6.888c5.25,4.9 13.175,7.813 20.404,7.813c7.225,-0 13.058,-2.675 13.171,-8.738c0.354,-14.808 -34.042,-7.233 -33.925,-29.029c-0,-11.775 10.146,-16.671 21.337,-16.671c7.346,0 14.454,2.096 19.584,5.592Z" style="fill:#6c6d6d;fill-rule:nonzero;"/><path d="M1750.54,1149.74l0,-25.596c0,-11.646 -5.687,-17.471 -17.066,-17.471l-6.096,-0c-11.108,-0 -16.658,5.825 -16.658,17.471l-0,48.35c-0,5.421 1.079,9.079 3.25,10.966c2.162,1.9 5.691,4.338 10.566,7.317l36.975,19.908c8.121,4.613 13.875,8.196 17.267,10.767c3.383,2.579 6.029,5.692 7.925,9.346c1.887,3.658 2.842,10.633 2.842,20.925l-0,62.171c-0,32.775 -15.709,49.162 -47.13,49.162l-23.975,0c-31.154,0 -46.725,-17.879 -46.725,-53.637l0,-14.625l39.005,-0l-0,15.841c-0,11.384 5.825,17.071 17.471,17.071l6.908,0c10.292,0 15.441,-5.687 15.441,-17.071l0,-49.566c0,-5.417 -1.087,-9.071 -3.25,-10.971c-2.175,-1.892 -5.691,-4.329 -10.566,-7.313l-36.975,-20.72c-8.129,-4.33 -14.017,-7.984 -17.675,-10.971c-3.658,-2.98 -6.296,-6.838 -7.921,-11.575c-1.625,-4.738 -2.438,-10.909 -2.438,-18.492l0,-59.729c0,-33.321 15.571,-49.975 46.725,-49.975l24.375,-0c31.151,-0 46.73,16.654 46.73,49.975l-0,28.442l-39.005,-0Z" style="fill:#565757;fill-rule:nonzero;"/><path d="M1948.81,1071.32l0,236.475c0,36.841 -15.716,55.258 -47.133,55.258l-32.912,0c-31.15,0 -46.725,-18.558 -46.725,-55.667l-0,-236.066l39.008,-0l0,237.287c0,12.734 5.687,19.096 17.063,19.096l15.845,0c10.567,0 15.85,-6.362 15.85,-19.096l0,-237.287l39.004,-0Z" style="fill:#565757;fill-rule:nonzero;"/><path d="M2024.38,1222.06l24.784,-0c10.295,-0 15.437,-5.692 15.437,-17.067l0,-81.263c0,-11.375 -5.829,-17.062 -17.467,-17.062l-22.754,-0l0,115.392Zm-39.008,-150.742l71.108,-0c31.417,-0 47.13,16.654 47.13,49.975l-0,86.55c-0,33.046 -15.58,49.566 -46.725,49.566l-32.505,0l0,105.642l-39.008,0l-0,-291.733Z" style="fill:#565757;fill-rule:nonzero;"/><path d="M2173.49,1211.9l25.596,0c11.645,0 17.474,-7.037 17.474,-21.129l0,-62.975c0,-14.083 -5.829,-21.129 -17.474,-21.129l-25.596,-0l-0,105.233Zm-39.009,-140.583l76.388,-0c29.796,-0 44.696,16.654 44.696,49.975l-0,71.917c-0,25.462 -7.721,41.583 -23.159,48.354l27.225,121.487l-36.975,0l-25.6,-117.833l-23.566,-0l-0,117.833l-39.009,0l0,-291.733Z" style="fill:#565757;fill-rule:nonzero;"/><path d="M2288.07,1363.05l-0,-291.733l96.704,-0l0,35.35l-57.696,-0l0,88.575l51.192,-0l-0,35.35l-51.192,-0l0,97.108l57.696,0l0,35.35l-96.704,0Z" style="fill:#565757;fill-rule:nonzero;"/><path d="M2492.04,1242.78l36.163,-171.462l43.067,-0l-0,291.733l-39.005,0l4.063,-190.971l-29.254,138.15l-30.067,0l-29.258,-138.15l4.071,190.971l-39.013,0l0,-291.733l43.071,-0l36.162,171.462Z" style="fill:#565757;fill-rule:nonzero;"/><path d="M2607.83,1363.05l0,-291.733l96.704,-0l0,35.35l-57.695,-0l-0,88.575l51.191,-0l0,35.35l-51.191,-0l-0,97.108l57.695,0l0,35.35l-96.704,0Z" style="fill:#565757;fill-rule:nonzero;"/><path d="M1558.7,712.283c2.117,76.721 -29.987,126.329 -95.312,164.634c-79.988,46.904 -162.642,95.166 -243.179,141.512c-89.238,51.35 -111.459,114.134 -47.376,196.913c-20.837,45.679 -93.454,37.287 -133.525,30.662c-44.895,-27.296 -57.966,-86.95 -55.416,-135.775c3.625,-69.396 40.408,-135.433 90.804,-182.371c160.983,-121.354 322.154,-242.454 483.579,-363.212c-0.004,49.212 0.154,98.425 0.425,147.637Z" style="fill:url(#_Linear1);"/><path d="M1172.84,1215.34c0,-0 -9.741,-7.888 -25.791,-22.205c-76.096,-67.841 -175.429,-172.729 -72.346,-265.279c-33.963,25.734 -62.363,56.83 -86.854,89.621c-72.934,97.65 -58.734,254.759 -55.225,371.958c1.683,56.342 68.246,68.838 110.575,46.317c46.616,-24.8 96.346,-52.633 141.458,-76.916c69.2,-37.263 35.15,-105.705 -11.817,-143.496Z" style="fill:url(#_Linear2);"/><path d="M935,1728.51c-2.112,-76.725 29.975,-126.33 95.321,-164.63c80.004,-46.891 162.65,-95.191 243.166,-141.516c89.221,-51.334 111.467,-114.142 47.384,-196.913c20.85,-45.683 93.454,-37.279 133.533,-30.658c44.875,27.304 57.933,86.975 55.4,135.775c-3.604,69.35 -40.425,135.429 -90.792,182.366c-160.987,121.351 -322.158,242.446 -483.587,363.213c-0,-49.213 -0.15,-98.421 -0.425,-147.637Z" style="fill:url(#_Linear3);"/><path d="M1320.87,1225.45c-0,0 9.737,7.896 25.787,22.2c76.125,67.867 175.409,172.704 72.354,265.283c33.963,-25.729 62.338,-56.825 86.838,-89.616c72.958,-97.654 58.771,-254.783 55.238,-371.959c-1.701,-56.354 -68.23,-68.841 -110.576,-46.316c-46.629,24.796 -96.35,52.621 -141.458,76.921c-69.196,37.266 -35.154,105.683 11.817,143.487Z" style="fill:url(#_Linear4);"/></g><defs><linearGradient id="_Linear1" x1="0" y1="0" x2="1" y2="0" gradientUnits="userSpaceOnUse" gradientTransform="matrix(-639.858,-43.0671,43.0671,-639.858,1632.11,928.808)"><stop offset="0" style="stop-color:#00c3ff;stop-opacity:1"/><stop offset="1" style="stop-color:#001872;stop-opacity:1"/></linearGradient><linearGradient id="_Linear2" x1="0" y1="0" x2="1" y2="0" gradientUnits="userSpaceOnUse" gradientTransform="matrix(-349.147,-23.5,23.5,-349.147,1278.09,1203.43)"><stop offset="0" style="stop-color:#001872;stop-opacity:1"/><stop offset="1" style="stop-color:#00c3ff;stop-opacity:1"/></linearGradient><linearGradient id="_Linear3" x1="0" y1="0" x2="1" y2="0" gradientUnits="userSpaceOnUse" gradientTransform="matrix(639.854,43.0667,-43.0667,639.854,861.604,1511.99)"><stop offset="0" style="stop-color:#00c3ff;stop-opacity:1"/><stop offset="1" style="stop-color:#001872;stop-opacity:1"/></linearGradient><linearGradient id="_Linear4" x1="0" y1="0" x2="1" y2="0" gradientUnits="userSpaceOnUse" gradientTransform="matrix(349.161,23.501,-23.501,349.161,1215.62,1237.38)"><stop offset="0" style="stop-color:#001872;stop-opacity:1"/><stop offset="1" style="stop-color:#00c3ff;stop-opacity:1"/></linearGradient></defs></svg>